<svg enable-background="new 0 0 256 256" viewBox="0 0 256 256" xmlns="http://www.w3.org/2000/svg"><circle cx="128" cy="128" fill="#f1c48b" r="104.245"/><path d="m158.98 199.5h-90.548c-3.741 0-6.774-3.033-6.774-6.774v-129.452c0-3.741 3.033-6.774 6.774-6.774h90.547c3.741 0 6.774 3.033 6.774 6.774v129.453c0 3.74-3.032 6.773-6.773 6.773z" fill="#fff"/><path d="m158.98 56.5h-14.5c3.741 0 6.774 3.033 6.774 6.774v129.453c0 3.741-3.033 6.774-6.774 6.774h14.5c3.741 0 6.774-3.033 6.774-6.774v-129.453c-.001-3.741-3.033-6.774-6.774-6.774z" fill="#d3e6f7"/><path d="m158.979 202.5h-90.547c-5.389 0-9.773-4.385-9.773-9.773v-129.454c0-5.389 4.384-9.773 9.773-9.773h90.547c5.389 0 9.773 4.385 9.773 9.773v129.453c.001 5.389-4.384 9.774-9.773 9.774zm-90.547-143c-2.081 0-3.773 1.692-3.773 3.773v129.453c0 2.081 1.693 3.773 3.773 3.773h90.547c2.081 0 3.773-1.692 3.773-3.773v-129.453c0-2.081-1.692-3.773-3.773-3.773z" fill="#4c4372"/><path d="m177.082 184.669 9.304 14.831 9.304-14.831v-81.194c0-2.472-2.004-4.475-4.475-4.475h-9.659c-2.472 0-4.475 2.004-4.475 4.475v81.194z" fill="#fd919e"/><path d="m177.082 113.449v-9.974c0-2.471 2.004-4.475 4.475-4.475h9.659c2.472 0 4.475 2.004 4.475 4.475v9.973h-18.609z" fill="#7bacf1"/><g fill="#4c4372"><path d="m186.386 199.5-4.829-7.697h9.658z"/><path d="m206.341 139.855c-1.657 0-3-1.343-3-3v-18.453c0-1.077-.876-1.953-1.953-1.953h-5.697c-1.657 0-3-1.343-3-3s1.343-3 3-3h5.697c4.386 0 7.953 3.567 7.953 7.953v18.453c0 1.658-1.343 3-3 3z"/><path d="m195.69 187.669h-18.608c-1.657 0-3-1.343-3-3s1.343-3 3-3h18.608c1.657 0 3 1.343 3 3s-1.342 3-3 3z"/><path d="m195.69 116.448h-18.608c-1.657 0-3-1.343-3-3v-9.974c0-4.121 3.354-7.475 7.475-7.475h9.659c4.121 0 7.475 3.354 7.475 7.476v9.973c-.001 1.657-1.343 3-3.001 3zm-15.608-6h12.608v-6.973c0-.813-.661-1.476-1.475-1.476h-9.659c-.813 0-1.475.661-1.475 1.475v6.974z"/><path d="m186.386 202.5c-1.032 0-1.992-.531-2.541-1.406l-9.304-14.831c-.3-.478-.459-1.03-.459-1.594v-81.193c0-4.122 3.354-7.476 7.475-7.476h9.659c4.121 0 7.475 3.354 7.475 7.476v81.193c0 .564-.159 1.116-.459 1.595l-9.305 14.831c-.549.874-1.509 1.405-2.541 1.405zm-6.304-18.694 6.304 10.049 6.305-10.049v-80.33c0-.813-.661-1.476-1.475-1.476h-9.659c-.813 0-1.475.662-1.475 1.476z"/><path d="m84.184 101.253c-.796 0-1.559-.316-2.122-.879l-7.222-7.223c-1.171-1.172-1.171-3.071 0-4.242 1.171-1.172 3.071-1.172 4.243 0l5.101 5.101 9.879-9.878c1.171-1.172 3.071-1.172 4.242 0 1.172 1.171 1.172 3.071 0 4.242l-12 12c-.562.563-1.326.879-2.121.879z"/><path d="m84.184 137c-.796 0-1.559-.316-2.122-.879l-7.222-7.223c-1.171-1.172-1.171-3.071 0-4.242 1.171-1.173 3.071-1.171 4.243 0l5.101 5.101 9.879-9.878c1.171-1.172 3.071-1.172 4.242 0 1.172 1.171 1.172 3.071 0 4.242l-12 12c-.562.563-1.326.879-2.121.879z"/><path d="m84.184 172.747c-.796 0-1.559-.316-2.122-.879l-7.222-7.223c-1.171-1.172-1.171-3.071 0-4.242 1.171-1.172 3.071-1.172 4.243 0l5.101 5.101 9.879-9.878c1.171-1.172 3.071-1.172 4.242 0 1.172 1.171 1.172 3.071 0 4.242l-12 12c-.562.563-1.326.879-2.121.879z"/><path d="m152.253 95.444h-46.791c-1.657 0-3-1.343-3-3s1.343-3 3-3h46.791c1.657 0 3 1.343 3 3s-1.343 3-3 3z"/><path d="m152.253 131h-46.791c-1.657 0-3-1.343-3-3s1.343-3 3-3h46.791c1.657 0 3 1.343 3 3s-1.343 3-3 3z"/><path d="m152.253 168.326h-46.791c-1.657 0-3-1.343-3-3s1.343-3 3-3h46.791c1.657 0 3 1.343 3 3s-1.343 3-3 3z"/></g></svg>